<?xml version="1.0" encoding="UTF-8" standalone="no"?>
<svg id="svg2"
   viewBox="0 0 180 135"
   height="1.5em"
   width="2em">
  <defs id="defs4" />
  <g transform="translate(0,-917.36215)"
     id="layer1">
    <path
       id="path4138"
       d="m 87.193359,934.43944 c -0.787304,-0.004 -1.566445,0.0107 -2.339843,0.0469 -49.497474,2.31305 -83.572266,58.97266 -83.572266,58.97266 0,0 42.259833,-33.62183 77.425781,-37.49024 a 35.892857,35.892857 0 0 0 -12.634765,27.28711 35.892857,35.892857 0 0 0 24.55664,34.02346 c -34.952361,3.4684 -38.461932,0.3935 -55.271484,-1.3457 0,0 27.302255,14.6434 57.115234,10.7148 29.812974,-3.9286 48.955074,-16.7871 48.955074,-16.7871 0,0 -6.93635,1.5945 -20.06835,3.5938 a 35.892857,35.892857 0 0 0 16.49804,-30.19926 35.892857,35.892857 0 0 0 -1.45703,-10.05078 c 22.96687,12.4468 39.91998,24.16684 41.23828,7.82422 1.47789,-18.32098 -6.97137,2.23686 -22.24219,-13.72265 -13.09275,-13.68322 -43.7967,-32.74087 -68.203121,-32.86719 z M 108.75,964.86131 a 16.607143,16.607143 0 0 1 10.6875,3.89649 11.607143,11.607143 0 0 0 -3.36523,-0.50196 11.607143,11.607143 0 0 0 -11.60743,11.60547 11.607143,11.607143 0 0 0 11.60743,11.60742 11.607143,11.607143 0 0 0 7.67968,-2.92187 A 16.607143,16.607143 0 0 1 108.75,998.07616 16.607143,16.607143 0 0 1 92.142578,981.46873 16.607143,16.607143 0 0 1 108.75,964.86131 Z"
       style="fill:white;fill-opacity:1;fill-rule:evenodd;stroke:none;stroke-width:1px;stroke-linecap:butt;stroke-linejoin:miter;stroke-opacity:1" />
  </g>
</svg>
